<svg width="22" height="20" viewBox="0 0 22 20" fill="none" xmlns="http://www.w3.org/2000/svg">
<path fill-rule="evenodd" clip-rule="evenodd" d="M10.9998 0.25C13.7959 0.25 16.2594 2.04942 17.1478 4.63208C19.79 4.99067 21.8332 7.26133 21.8332 10C21.8332 11.3228 21.3522 12.5957 20.479 13.5848C20.2645 13.8263 19.9666 13.9509 19.6665 13.9509C19.4119 13.9509 19.1563 13.8621 18.9493 13.6801C18.5019 13.2825 18.4586 12.5989 18.8551 12.1493C19.3783 11.5578 19.6665 10.793 19.6665 10C19.6665 8.20817 18.2083 6.75 16.4165 6.75H16.3082C15.7925 6.75 15.3483 6.386 15.2465 5.88008C14.8413 3.87375 13.056 2.41667 10.9998 2.41667C8.94475 2.41667 7.15834 3.87375 6.75425 5.88008C6.65242 6.386 6.20717 6.75 5.6915 6.75H5.58317C3.79134 6.75 2.33317 8.20817 2.33317 10C2.33317 10.793 2.62134 11.5578 3.14567 12.1493C3.54109 12.5989 3.49884 13.2825 3.05034 13.6801C2.60075 14.0766 1.91717 14.0322 1.52175 13.5848C0.647504 12.5957 0.166504 11.3228 0.166504 10C0.166504 7.26133 2.20967 4.99067 4.85192 4.63208C5.74134 2.04942 8.20484 0.25 10.9998 0.25ZM12.0836 16.1142L13.4974 14.7492C13.9285 14.3343 14.6143 14.3462 15.0292 14.7763C15.4452 15.2075 15.4333 15.8932 15.0032 16.3081L11.7532 19.4466C11.5419 19.6481 11.2711 19.7499 11.0003 19.7499C10.7229 19.7499 10.4456 19.6448 10.2344 19.4325L6.98435 16.1825C6.56077 15.76 6.56077 15.0742 6.98435 14.6506C7.40685 14.2281 8.0926 14.2281 8.51618 14.6506L9.91693 16.0514V9.99989C9.91693 9.40081 10.4023 8.91656 11.0003 8.91656C11.5983 8.91656 12.0836 9.40081 12.0836 9.99989V16.1142Z" fill="black"/>
</svg>
