<svg width="22" height="22" viewBox="0 0 22 22" fill="none" xmlns="http://www.w3.org/2000/svg">
<path fill-rule="evenodd" clip-rule="evenodd" d="M2.76975 10.5908C3.97875 11.0057 4.94184 12.0176 5.34484 13.3002L5.38817 13.4302C5.84967 14.7909 5.66225 16.2556 4.88875 17.3541C4.74792 17.5534 4.77934 17.7917 4.92775 17.9044L7.17242 19.6096C7.2515 19.6692 7.32842 19.6692 7.37609 19.6637C7.43026 19.6551 7.50934 19.6258 7.57326 19.5348L7.8235 19.1795C8.56992 18.1211 9.77242 17.4678 11.0421 17.431C12.4678 17.4017 13.7483 18.055 14.5456 19.2066L14.6734 19.3918C14.7373 19.4828 14.8153 19.5132 14.8706 19.5218C14.9183 19.5316 14.9963 19.5283 15.0743 19.4677L17.307 17.7831C17.463 17.6661 17.4977 17.4158 17.3818 17.2479L17.1001 16.8417C16.3743 15.793 16.1587 14.4323 16.5238 13.2027C16.9203 11.8637 17.9288 10.8042 19.2234 10.3709L19.4412 10.2972C19.6156 10.2398 19.7098 10.0232 19.6481 9.82383L18.7955 7.09274C18.7554 6.96491 18.6731 6.90749 18.6276 6.88366C18.5626 6.85008 18.4922 6.84466 18.425 6.86741L18.0567 6.98983C16.7968 7.40908 15.4068 7.18158 14.3398 6.37883L14.2228 6.29108C13.2088 5.52841 12.6053 4.29883 12.6097 3.00316L12.6118 2.69983C12.6118 2.55574 12.5436 2.46583 12.5024 2.42466C12.4634 2.38458 12.3973 2.33691 12.3042 2.33691L9.54492 2.33366C9.37592 2.33366 9.23834 2.49508 9.23726 2.69441L9.23617 2.95658C9.23076 4.27283 8.61434 5.52516 7.58734 6.30841L7.44759 6.41458C6.31767 7.27366 4.84434 7.51633 3.50967 7.06133C3.45875 7.04399 3.41109 7.04724 3.36559 7.07108C3.33092 7.08841 3.26809 7.13283 3.23775 7.23141L2.35267 10.0437C2.28875 10.2485 2.39384 10.4619 2.59209 10.5302L2.76975 10.5908ZM7.33167 21.8337C6.80517 21.8337 6.29384 21.6625 5.86267 21.3342L3.618 19.6302C2.5455 18.8177 2.30825 17.2544 3.08825 16.1462C3.49342 15.572 3.57684 14.8342 3.3385 14.1344L3.27892 13.9524C3.08067 13.3219 2.62784 12.8322 2.06775 12.6405H2.06667L1.89009 12.5787C0.570587 12.127 -0.13358 10.7284 0.28567 9.39374L1.16967 6.58249C1.37009 5.94658 1.80234 5.43307 2.38734 5.13732C2.95934 4.84916 3.60609 4.80474 4.21059 5.01166C4.8595 5.23266 5.57992 5.11241 6.13567 4.68991L6.27542 4.58374C6.76942 4.20674 7.06734 3.59466 7.0695 2.94791L7.07059 2.68683C7.076 1.29583 8.18642 0.166992 9.54384 0.166992H9.54817L12.3074 0.170242C12.9596 0.171326 13.5749 0.429159 14.0386 0.896075C14.5185 1.37816 14.7807 2.02274 14.7785 2.71066L14.7763 3.01291C14.7742 3.62608 15.0548 4.20566 15.5282 4.56099L15.6441 4.64874C16.1413 5.02249 16.7892 5.12974 17.3709 4.93474L17.7382 4.81233C18.3633 4.60433 19.0284 4.65524 19.6145 4.95533C20.2158 5.26299 20.6599 5.79274 20.8636 6.44816L21.7162 9.17924C22.1278 10.4987 21.415 11.9222 20.1291 12.3523L19.9113 12.4249C19.2873 12.6351 18.7966 13.1551 18.6005 13.8181C18.4207 14.4258 18.5247 15.0942 18.8811 15.6077L19.1628 16.014C19.9363 17.132 19.6893 18.7007 18.6124 19.5121L16.3797 21.1977C15.8434 21.6029 15.1858 21.7665 14.5261 21.6614C13.8609 21.5542 13.2803 21.1858 12.8913 20.6247L12.7635 20.4383C12.3843 19.8923 11.7777 19.5608 11.1418 19.5966C10.5048 19.6139 9.95442 19.9162 9.59475 20.4275L9.3445 20.7828C8.95234 21.3386 8.37059 21.7015 7.70867 21.8055C7.58192 21.825 7.45625 21.8337 7.33167 21.8337ZM11.0001 9.37522C10.1041 9.37522 9.37505 10.1043 9.37505 11.0002C9.37505 11.8961 10.1041 12.6252 11.0001 12.6252C11.896 12.6252 12.6251 11.8961 12.6251 11.0002C12.6251 10.1043 11.896 9.37522 11.0001 9.37522ZM11.0001 14.7919C8.90922 14.7919 7.20839 13.0911 7.20839 11.0002C7.20839 8.90938 8.90922 7.20855 11.0001 7.20855C13.0909 7.20855 14.7917 8.90938 14.7917 11.0002C14.7917 13.0911 13.0909 14.7919 11.0001 14.7919Z" fill="black"/>
</svg>
